<svg xmlns="http://www.w3.org/2000/svg" width="1736" height="798" viewBox="0 0 1736 798">
<defs><marker id="flecha" viewBox="0 0 10 10" refX="9.5" refY="5" markerWidth="8" markerHeight="8" orient="auto-start-reverse"><path d="M 0 0 L 10 5 L 0 10 z" fill="#334155"/></marker></defs>
<rect width="100%" height="100%" fill="#FFFFFF"/>
<text x="24" y="50" font-size="24" font-weight="700" fill="#0F172A" text-anchor="start" font-family="'Segoe UI', system-ui, sans-serif">Derechos del titular de los datos (Ley 21.719)</text>
<text x="24" y="74" font-size="13" font-weight="400" fill="#475569" text-anchor="start" font-family="'Segoe UI', system-ui, sans-serif">Diagrama de proceso BPMN 2.0 · Revela · editable en docs/bpmn/derechos-del-titular.bpmn</text>
<rect x="24" y="94" width="1688" height="680" fill="#EEF2FF" stroke="#4F46E5" stroke-width="2"/>
<text x="46" y="434" font-size="14" font-weight="700" fill="#4F46E5" text-anchor="middle" font-family="'Segoe UI', system-ui, sans-serif" transform="rotate(-90 46 434)">CRM de una empresa en Revela</text>
<rect x="58" y="94" width="1654" height="170" fill="#FFFFFF" stroke="#CBD5E1" stroke-width="1.2"/>
<line x1="92" y1="94" x2="92" y2="264" stroke="#CBD5E1" stroke-width="1.2"/>
<text x="80" y="179" font-size="12.5" font-weight="600" fill="#0F172A" text-anchor="middle" font-family="'Segoe UI', system-ui, sans-serif" transform="rotate(-90 80 179)">Titular de los datos</text>
<rect x="58" y="264" width="1654" height="170" fill="#F8FAFC" stroke="#CBD5E1" stroke-width="1.2"/>
<line x1="92" y1="264" x2="92" y2="434" stroke="#CBD5E1" stroke-width="1.2"/>
<text x="73" y="349" font-size="12.5" font-weight="600" fill="#0F172A" text-anchor="middle" font-family="'Segoe UI', system-ui, sans-serif" transform="rotate(-90 73 349)">Usuario del CRM</text>
<text x="87" y="349" font-size="12.5" font-weight="600" fill="#0F172A" text-anchor="middle" font-family="'Segoe UI', system-ui, sans-serif" transform="rotate(-90 87 349)">(vendedor o gerente)</text>
<rect x="58" y="434" width="1654" height="170" fill="#FFFFFF" stroke="#CBD5E1" stroke-width="1.2"/>
<line x1="92" y1="434" x2="92" y2="604" stroke="#CBD5E1" stroke-width="1.2"/>
<text x="80" y="519" font-size="12.5" font-weight="600" fill="#0F172A" text-anchor="middle" font-family="'Segoe UI', system-ui, sans-serif" transform="rotate(-90 80 519)">Gerente</text>
<rect x="58" y="604" width="1654" height="170" fill="#F8FAFC" stroke="#CBD5E1" stroke-width="1.2"/>
<line x1="92" y1="604" x2="92" y2="774" stroke="#CBD5E1" stroke-width="1.2"/>
<text x="73" y="689" font-size="12.5" font-weight="600" fill="#0F172A" text-anchor="middle" font-family="'Segoe UI', system-ui, sans-serif" transform="rotate(-90 73 689)">Revela (app y base de</text>
<text x="87" y="689" font-size="12.5" font-weight="600" fill="#0F172A" text-anchor="middle" font-family="'Segoe UI', system-ui, sans-serif" transform="rotate(-90 87 689)">datos)</text>
<rect x="24" y="94" width="1688" height="680" fill="none" stroke="#4F46E5" stroke-width="2"/>
<path d="M 225 179 L 291 179 L 291 349 L 313 349" fill="none" stroke="#334155" stroke-width="1.6" marker-end="url(#flecha)"/>
<path d="M 451 349 L 470 349 L 470 689 L 489 689" fill="none" stroke="#334155" stroke-width="1.6" marker-end="url(#flecha)"/>
<path d="M 627 689 L 646 689 L 646 519 L 665 519" fill="none" stroke="#334155" stroke-width="1.6" marker-end="url(#flecha)"/>
<path d="M 803 519 L 884 519" fill="none" stroke="#334155" stroke-width="1.6" marker-end="url(#flecha)"/>
<path d="M 936 519 L 1017 519" fill="none" stroke="#334155" stroke-width="1.6" marker-end="url(#flecha)"/><text x="944" y="511" font-size="11.5" font-weight="600" fill="#475569" text-anchor="start" font-family="'Segoe UI', system-ui, sans-serif">No</text>
<path d="M 910 545 L 910 689 L 1017 689" fill="none" stroke="#334155" stroke-width="1.6" marker-end="url(#flecha)"/><text x="917" y="565" font-size="11.5" font-weight="600" fill="#475569" text-anchor="start" font-family="'Segoe UI', system-ui, sans-serif">Sí</text>
<path d="M 1155 519 L 1174 519 L 1174 689 L 1193 689" fill="none" stroke="#334155" stroke-width="1.6" marker-end="url(#flecha)"/>
<path d="M 1155 689 L 1193 689" fill="none" stroke="#334155" stroke-width="1.6" marker-end="url(#flecha)"/>
<path d="M 1331 689 L 1350 689 L 1350 519 L 1369 519" fill="none" stroke="#334155" stroke-width="1.6" marker-end="url(#flecha)"/>
<path d="M 1507 519 L 1551 519 L 1551 179 L 1595 179" fill="none" stroke="#334155" stroke-width="1.6" marker-end="url(#flecha)"/>
<circle cx="206" cy="179" r="19" fill="#ECFDF5" stroke="#059669" stroke-width="2"/><rect x="197" y="173" width="18" height="12" rx="1.5" fill="#FFFFFF" stroke="#059669" stroke-width="1.4"/><path d="M 197 173 L 206 180.2 L 215 173" fill="none" stroke="#059669" stroke-width="1.4"/><text x="206" y="216" font-size="12" font-weight="400" fill="#0F172A" text-anchor="middle" font-family="'Segoe UI', system-ui, sans-serif">Pide acceder,</text><text x="206" y="231" font-size="12" font-weight="400" fill="#0F172A" text-anchor="middle" font-family="'Segoe UI', system-ui, sans-serif">corregir, oponerse o</text><text x="206" y="246" font-size="12" font-weight="400" fill="#0F172A" text-anchor="middle" font-family="'Segoe UI', system-ui, sans-serif">borrar sus datos</text>
<rect x="313" y="301" width="138" height="96" rx="10" fill="#FFFFFF" stroke="#334155" stroke-width="1.6"/><circle cx="328" cy="313" r="3.6" fill="none" stroke="#4F46E5" stroke-width="1.5"/><path d="M 321.5 324 Q 328 315.5 334.5 324 Z" fill="none" stroke="#4F46E5" stroke-width="1.5"/><text x="382" y="338.9375" font-size="12.5" font-weight="400" fill="#0F172A" text-anchor="middle" font-family="'Segoe UI', system-ui, sans-serif">Registrar la</text><text x="382" y="354.5625" font-size="12.5" font-weight="400" fill="#0F172A" text-anchor="middle" font-family="'Segoe UI', system-ui, sans-serif">solicitud y su</text><text x="382" y="370.1875" font-size="12.5" font-weight="400" fill="#0F172A" text-anchor="middle" font-family="'Segoe UI', system-ui, sans-serif">motivo en Registro</text><text x="382" y="385.8125" font-size="12.5" font-weight="400" fill="#0F172A" text-anchor="middle" font-family="'Segoe UI', system-ui, sans-serif">de contacto</text>
<rect x="489" y="641" width="138" height="96" rx="10" fill="#FFFFFF" stroke="#334155" stroke-width="1.6"/><line x1="509" y1="655" x2="512" y2="655" stroke="#4F46E5" stroke-width="2.2" stroke-linecap="round"/><line x1="507.53553390593277" y1="658.5355339059328" x2="509.65685424949237" y2="660.6568542494924" stroke="#4F46E5" stroke-width="2.2" stroke-linecap="round"/><line x1="504" y1="660" x2="504" y2="663" stroke="#4F46E5" stroke-width="2.2" stroke-linecap="round"/><line x1="500.4644660940673" y1="658.5355339059328" x2="498.34314575050763" y2="660.6568542494924" stroke="#4F46E5" stroke-width="2.2" stroke-linecap="round"/><line x1="499" y1="655" x2="496" y2="655" stroke="#4F46E5" stroke-width="2.2" stroke-linecap="round"/><line x1="500.46446609406723" y1="651.4644660940672" x2="498.34314575050763" y2="649.3431457505076" stroke="#4F46E5" stroke-width="2.2" stroke-linecap="round"/><line x1="504" y1="650" x2="504" y2="647" stroke="#4F46E5" stroke-width="2.2" stroke-linecap="round"/><line x1="507.5355339059327" y1="651.4644660940672" x2="509.65685424949237" y2="649.3431457505076" stroke="#4F46E5" stroke-width="2.2" stroke-linecap="round"/><circle cx="504" cy="655" r="5" fill="#FFFFFF" stroke="#4F46E5" stroke-width="1.5"/><circle cx="504" cy="655" r="1.8" fill="#4F46E5"/><text x="558" y="682.75" font-size="12.5" font-weight="400" fill="#0F172A" text-anchor="middle" font-family="'Segoe UI', system-ui, sans-serif">Bloquear el lead: no</text><text x="558" y="698.375" font-size="12.5" font-weight="400" fill="#0F172A" text-anchor="middle" font-family="'Segoe UI', system-ui, sans-serif">se edita, no se</text><text x="558" y="714" font-size="12.5" font-weight="400" fill="#0F172A" text-anchor="middle" font-family="'Segoe UI', system-ui, sans-serif">mueve ni se contacta</text>
<rect x="665" y="471" width="138" height="96" rx="10" fill="#FFFFFF" stroke="#334155" stroke-width="1.6"/><circle cx="680" cy="483" r="3.6" fill="none" stroke="#4F46E5" stroke-width="1.5"/><path d="M 673.5 494 Q 680 485.5 686.5 494 Z" fill="none" stroke="#4F46E5" stroke-width="1.5"/><text x="734" y="512.75" font-size="12.5" font-weight="400" fill="#0F172A" text-anchor="middle" font-family="'Segoe UI', system-ui, sans-serif">Verificar la</text><text x="734" y="528.375" font-size="12.5" font-weight="400" fill="#0F172A" text-anchor="middle" font-family="'Segoe UI', system-ui, sans-serif">identidad y revisar</text><text x="734" y="544" font-size="12.5" font-weight="400" fill="#0F172A" text-anchor="middle" font-family="'Segoe UI', system-ui, sans-serif">la solicitud</text>
<path d="M 910 493 L 936 519 L 910 545 L 884 519 Z" fill="#FEF3C7" stroke="#B45309" stroke-width="2"/><path d="M 901 510 L 919 528 M 919 510 L 901 528" stroke="#B45309" stroke-width="3.5" stroke-linecap="round"/><text x="900" y="563" font-size="12" font-weight="600" fill="#0F172A" text-anchor="end" font-family="'Segoe UI', system-ui, sans-serif">¿Se aprueba?</text>
<rect x="1017" y="471" width="138" height="96" rx="10" fill="#FFFFFF" stroke="#334155" stroke-width="1.6"/><circle cx="1032" cy="483" r="3.6" fill="none" stroke="#4F46E5" stroke-width="1.5"/><path d="M 1025.5 494 Q 1032 485.5 1038.5 494 Z" fill="none" stroke="#4F46E5" stroke-width="1.5"/><text x="1086" y="520.5625" font-size="12.5" font-weight="400" fill="#0F172A" text-anchor="middle" font-family="'Segoe UI', system-ui, sans-serif">Registrar el motivo</text><text x="1086" y="536.1875" font-size="12.5" font-weight="400" fill="#0F172A" text-anchor="middle" font-family="'Segoe UI', system-ui, sans-serif">del rechazo</text>
<rect x="1017" y="641" width="138" height="96" rx="10" fill="#FFFFFF" stroke="#334155" stroke-width="1.6"/><line x1="1037" y1="655" x2="1040" y2="655" stroke="#4F46E5" stroke-width="2.2" stroke-linecap="round"/><line x1="1035.5355339059327" y1="658.5355339059328" x2="1037.6568542494924" y2="660.6568542494924" stroke="#4F46E5" stroke-width="2.2" stroke-linecap="round"/><line x1="1032" y1="660" x2="1032" y2="663" stroke="#4F46E5" stroke-width="2.2" stroke-linecap="round"/><line x1="1028.4644660940673" y1="658.5355339059328" x2="1026.3431457505076" y2="660.6568542494924" stroke="#4F46E5" stroke-width="2.2" stroke-linecap="round"/><line x1="1027" y1="655" x2="1024" y2="655" stroke="#4F46E5" stroke-width="2.2" stroke-linecap="round"/><line x1="1028.4644660940673" y1="651.4644660940672" x2="1026.3431457505076" y2="649.3431457505076" stroke="#4F46E5" stroke-width="2.2" stroke-linecap="round"/><line x1="1032" y1="650" x2="1032" y2="647" stroke="#4F46E5" stroke-width="2.2" stroke-linecap="round"/><line x1="1035.5355339059327" y1="651.4644660940672" x2="1037.6568542494924" y2="649.3431457505076" stroke="#4F46E5" stroke-width="2.2" stroke-linecap="round"/><circle cx="1032" cy="655" r="5" fill="#FFFFFF" stroke="#4F46E5" stroke-width="1.5"/><circle cx="1032" cy="655" r="1.8" fill="#4F46E5"/><text x="1086" y="678.9375" font-size="12.5" font-weight="400" fill="#0F172A" text-anchor="middle" font-family="'Segoe UI', system-ui, sans-serif">Anonimizar: borra</text><text x="1086" y="694.5625" font-size="12.5" font-weight="400" fill="#0F172A" text-anchor="middle" font-family="'Segoe UI', system-ui, sans-serif">los datos personales</text><text x="1086" y="710.1875" font-size="12.5" font-weight="400" fill="#0F172A" text-anchor="middle" font-family="'Segoe UI', system-ui, sans-serif">y conserva la</text><text x="1086" y="725.8125" font-size="12.5" font-weight="400" fill="#0F172A" text-anchor="middle" font-family="'Segoe UI', system-ui, sans-serif">operación</text>
<rect x="1193" y="641" width="138" height="96" rx="10" fill="#FFFFFF" stroke="#334155" stroke-width="1.6"/><line x1="1213" y1="655" x2="1216" y2="655" stroke="#4F46E5" stroke-width="2.2" stroke-linecap="round"/><line x1="1211.5355339059327" y1="658.5355339059328" x2="1213.6568542494924" y2="660.6568542494924" stroke="#4F46E5" stroke-width="2.2" stroke-linecap="round"/><line x1="1208" y1="660" x2="1208" y2="663" stroke="#4F46E5" stroke-width="2.2" stroke-linecap="round"/><line x1="1204.4644660940673" y1="658.5355339059328" x2="1202.3431457505076" y2="660.6568542494924" stroke="#4F46E5" stroke-width="2.2" stroke-linecap="round"/><line x1="1203" y1="655" x2="1200" y2="655" stroke="#4F46E5" stroke-width="2.2" stroke-linecap="round"/><line x1="1204.4644660940673" y1="651.4644660940672" x2="1202.3431457505076" y2="649.3431457505076" stroke="#4F46E5" stroke-width="2.2" stroke-linecap="round"/><line x1="1208" y1="650" x2="1208" y2="647" stroke="#4F46E5" stroke-width="2.2" stroke-linecap="round"/><line x1="1211.5355339059327" y1="651.4644660940672" x2="1213.6568542494924" y2="649.3431457505076" stroke="#4F46E5" stroke-width="2.2" stroke-linecap="round"/><circle cx="1208" cy="655" r="5" fill="#FFFFFF" stroke="#4F46E5" stroke-width="1.5"/><circle cx="1208" cy="655" r="1.8" fill="#4F46E5"/><text x="1262" y="678.9375" font-size="12.5" font-weight="400" fill="#0F172A" text-anchor="middle" font-family="'Segoe UI', system-ui, sans-serif">Cerrar la solicitud,</text><text x="1262" y="694.5625" font-size="12.5" font-weight="400" fill="#0F172A" text-anchor="middle" font-family="'Segoe UI', system-ui, sans-serif">desbloquear y</text><text x="1262" y="710.1875" font-size="12.5" font-weight="400" fill="#0F172A" text-anchor="middle" font-family="'Segoe UI', system-ui, sans-serif">dejarla en el</text><text x="1262" y="725.8125" font-size="12.5" font-weight="400" fill="#0F172A" text-anchor="middle" font-family="'Segoe UI', system-ui, sans-serif">historial</text>
<rect x="1369" y="471" width="138" height="96" rx="10" fill="#FFFFFF" stroke="#334155" stroke-width="1.6"/><rect x="1377" y="479" width="17" height="12" rx="1.5" fill="#4F46E5"/><path d="M 1377 479 L 1385.5 486.2 L 1394 479" fill="none" stroke="#FFFFFF" stroke-width="1.3"/><text x="1438" y="520.5625" font-size="12.5" font-weight="400" fill="#0F172A" text-anchor="middle" font-family="'Segoe UI', system-ui, sans-serif">Responder al titular</text><text x="1438" y="536.1875" font-size="12.5" font-weight="400" fill="#0F172A" text-anchor="middle" font-family="'Segoe UI', system-ui, sans-serif">dentro del plazo</text>
<circle cx="1614" cy="179" r="17.5" fill="#FEF2F2" stroke="#DC2626" stroke-width="4"/><text x="1614" y="150" font-size="12" font-weight="400" fill="#0F172A" text-anchor="middle" font-family="'Segoe UI', system-ui, sans-serif">Recibe la respuesta</text>
</svg>